<?xml version="1.0" encoding="utf-8"?>
<!-- Generator: Adobe Illustrator 23.0.4, SVG Export Plug-In . SVG Version: 6.00 Build 0)  -->
<svg version="1.1" id="Layer_1" xmlns="http://www.w3.org/2000/svg" xmlns:xlink="http://www.w3.org/1999/xlink" x="0px" y="0px"
	 viewBox="0 0 100 100" style="enable-background:new 0 0 100 100;" xml:space="preserve">
<style type="text/css">
	.st0{fill:#FFFFFF;}
</style>
<path class="st0" d="M85.7,15.5H14.3c-1.9,0-3.5,1.6-3.5,3.5v49.1c0,1.9,1.6,3.5,3.5,3.5h29l-0.6,6.3c0,0.4-0.4,3.6-6.6,3.6
	c-0.8,0-1.5,0.7-1.5,1.5s0.7,1.5,1.5,1.5h27.7c0.8,0,1.5-0.7,1.5-1.5s-0.7-1.5-1.5-1.5c-6.1,0-6.5-3.2-6.6-3.7l-0.6-6.3h29
	c1.9,0,3.5-1.6,3.5-3.5V19C89.3,17,87.7,15.5,85.7,15.5z M44.2,81.5c1.4-1.7,1.5-3.4,1.5-3.4l0.6-6.5h7.4l0.6,6.5
	c0,0,0.1,1.8,1.5,3.5H44.2z M86.3,68.1c0,0.3-0.2,0.5-0.5,0.5H14.3c-0.3,0-0.5-0.2-0.5-0.5V19c0-0.3,0.2-0.5,0.5-0.5h71.5
	c0.3,0,0.5,0.2,0.5,0.5V68.1z M67.4,27.6l-21,24.8l-14-11.1c-0.6-0.5-1.6-0.4-2.1,0.2c-0.5,0.6-0.4,1.6,0.2,2.1l15.1,12
	c0.3,0.2,0.6,0.3,0.9,0.3c0.4,0,0.8-0.2,1.1-0.5l22-25.9c0.5-0.6,0.5-1.6-0.2-2.1C68.9,26.9,67.9,27,67.4,27.6z"/>
</svg>
